<?xml version="1.0" encoding="UTF-8"?>
<!-- Created with Inkscape (http://www.inkscape.org/) -->
<svg width="3925" height="990" version="1.1" viewBox="0 0 3925 990" xmlns="http://www.w3.org/2000/svg" xmlns:cc="http://creativecommons.org/ns#" xmlns:dc="http://purl.org/dc/elements/1.1/" xmlns:rdf="http://www.w3.org/1999/02/22-rdf-syntax-ns#">
 <title>FIUBA CloudSync</title>
 <defs>
  <clipPath id="clipPath27">
   <path d="M 0,850.394 H 850.394 V 0 H 0 Z"/>
  </clipPath>
  <filter id="filter3434" x="-.020314" y="-.028787" width="1.0406" height="1.0491" color-interpolation-filters="sRGB">
   <feFlood flood-color="rgb(0,0,0)" flood-opacity=".49804" result="flood"/>
   <feComposite in="flood" in2="SourceGraphic" operator="in" result="composite1"/>
   <feGaussianBlur in="composite1" result="blur" stdDeviation="6"/>
   <feOffset dx="0" dy="-6" result="offset"/>
   <feComposite in="SourceGraphic" in2="offset" result="composite2"/>
  </filter>
 </defs>
 <g transform="matrix(1.3333 0 0 -1.3333 0 1133.9)">
  <g transform="translate(2149 56.467)" clip-path="url(#clipPath27)">
   <g transform="translate(251.31 779.53)">
    <path d="m0 0h347.78c99.364 0 180.55-80.76 180.55-179.7v-349.26c0-98.942-81.183-179.7-180.55-179.7h-347.78c-99.366 0-180.55 80.76-180.55 179.7v349.26c0 98.942 81.183 179.7 180.55 179.7" fill="#5b9cff" fill-rule="evenodd" filter="url(#filter3434)"/>
   </g>
   <g transform="translate(779.63 371.07)">
    <path d="m-1.5 0-159.4 157.49-406.11-247.35 206.74-210.35h178.22c99.364 0 180.55 80.76 180.55 179.7z" fill="#4777bf" fill-rule="evenodd"/>
   </g>
   <g transform="translate(425.3 266)">
    <path d="m9.8482 0h-206.96c-27.062 17.336-48.415 45.665-48.415 77.589 0 52.853 46.301 95.559 103.38 95.559 6.978 0 13.531-0.423 20.086-1.691 8.879 63.847 63.525 119.24 127.59 140.17z" fill="#ebf0f1" fill-rule="evenodd"/>
   </g>
   <g transform="translate(486.19 584.39)">
    <path d="m-1.7762 0c101.06 0 182.87-75.687 182.87-168.92 0-64.905-52.854-121.14-109.72-149.47h-134.04l1.1798 309.67c19.027 6.131 38.354 8.7274 59.706 8.7274" fill="#ebf0f1" fill-rule="evenodd"/>
   </g>
  </g>
  <text transform="scale(1,-1)" x="-3.9453115" y="-372.28784" fill="#4777bf" font-family="Arial" font-weight="bold" stroke-width=".99975" xml:space="preserve"><tspan x="-3.9453115" y="-372.28784" fill="#000000" font-family="Arial" font-size="400px" font-weight="bold">CloudSync</tspan></text>
 </g>
 <metadata>
  <rdf:RDF>
   <cc:Work rdf:about="">
    <dc:title>FIUBA CloudSync</dc:title>
   </cc:Work>
  </rdf:RDF>
 </metadata>
</svg>
